<?xml version="1.0" encoding="UTF-8" standalone="no"?>
<!-- Created with Inkscape (http://www.inkscape.org/) -->

<svg
   width="24.419182mm"
   height="4.8219199mm"
   viewBox="0 0 24.419182 4.8219199"
   version="1.1"
   id="svg1"
   xml:space="preserve"
   xmlns:inkscape="http://www.inkscape.org/namespaces/inkscape"
   xmlns:sodipodi="http://sodipodi.sourceforge.net/DTD/sodipodi-0.dtd"
   xmlns="http://www.w3.org/2000/svg"
   xmlns:svg="http://www.w3.org/2000/svg"><sodipodi:namedview
     id="namedview1"
     pagecolor="#ffffff"
     bordercolor="#000000"
     borderopacity="0.25"
     inkscape:showpageshadow="2"
     inkscape:pageopacity="0.0"
     inkscape:pagecheckerboard="0"
     inkscape:deskcolor="#d1d1d1"
     inkscape:document-units="mm"><inkscape:page
       x="0"
       y="-1.1205541e-22"
       width="24.419182"
       height="4.8219199"
       id="page2"
       margin="0"
       bleed="0" /></sodipodi:namedview><defs
     id="defs1" /><g
     inkscape:label="Calque 1"
     inkscape:groupmode="layer"
     id="layer1"
     transform="translate(-114.63915,54.348873)"><g
       id="g6"
       transform="translate(-3.7629211,-167.62103)"><path
         id="rect2"
         style="fill:#23d17f;fill-opacity:1;stroke:#23d17f;stroke-width:0;stroke-dasharray:none;stroke-opacity:1;paint-order:stroke markers fill"
         d="m 140.43587,113.27216 a 2.3854828,2.3854828 0 0 0 -2.22415,1.53892 h -15.21458 a 2.3854828,2.3854828 0 0 0 -2.20968,-1.48776 2.3854828,2.3854828 0 0 0 -2.38538,2.38538 2.3854828,2.3854828 0 0 0 2.38538,2.38538 2.3854828,2.3854828 0 0 0 2.09755,-1.26193 h 15.48122 a 2.3854828,2.3854828 0 0 0 2.06964,1.21077 2.3854828,2.3854828 0 0 0 2.38539,-2.38538 2.3854828,2.3854828 0 0 0 -2.38539,-2.38538 z" /><g
         id="g3"><circle
           style="fill:#ffffff;fill-opacity:1;stroke:#23d17f;stroke-width:0;stroke-dasharray:none;stroke-opacity:1;paint-order:stroke markers fill"
           id="circle3"
           cx="120.78753"
           cy="115.70876"
           r="1.8468254" /></g><g
         id="g5"
         transform="translate(19.648173,-0.05130071)"><circle
           style="fill:#ffffff;fill-opacity:1;stroke:#23d17f;stroke-width:0;stroke-dasharray:none;stroke-opacity:1;paint-order:stroke markers fill"
           id="circle5"
           cx="120.78753"
           cy="115.70876"
           r="1.8468254" /></g></g></g></svg>
